inDegrees=no
num_controls=7
num_derivatives=13
num_iterations=266
num_multipliers=7
num_parameters=0
num_slacks=7
num_states=26
objective=5.954137
objective_accelerations=0.733660
objective_balance=0.129113
objective_effort=0.478855
objective_height=4.516524
objective_ligament=0.095985
solver_duration=3038.107511
status=Solve_Succeeded
success=true
DataType=double
version=3
OpenSimVersion=4.4-2022-07-23-0e9fedc
endheader
time	/jointset/ground_pelvis/pelvis_tilt/value	/jointset/ground_pelvis/pelvis_tx/value	/jointset/ground_pelvis/pelvis_ty/value	/jointset/hip_l/hip_flexion_l/value	/jointset/hip_l/hip_adduction_l/value	/jointset/hip_l/hip_rotation_l/value	/jointset/back/lumbar_extension/value	/jointset/patellofemoral_l/patellar_flexion_l/value	/jointset/knee_l/knee_flexion_l/value	/jointset/knee_l/knee_adduction_l/value	/jointset/knee_l/knee_rotation_l/value	/jointset/ankle_l/ankle_angle_l/value	/jointset/subtalar_l/subtalar_angle_l/value	/jointset/ground_pelvis/pelvis_tilt/speed	/jointset/ground_pelvis/pelvis_tx/speed	/jointset/ground_pelvis/pelvis_ty/speed	/jointset/hip_l/hip_flexion_l/speed	/jointset/hip_l/hip_adduction_l/speed	/jointset/hip_l/hip_rotation_l/speed	/jointset/back/lumbar_extension/speed	/jointset/patellofemoral_l/patellar_flexion_l/speed	/jointset/knee_l/knee_flexion_l/speed	/jointset/knee_l/knee_adduction_l/speed	/jointset/knee_l/knee_rotation_l/speed	/jointset/ankle_l/ankle_angle_l/speed	/jointset/subtalar_l/subtalar_angle_l/speed	/forceset/tau_hip_flexion_l	/forceset/tau_hip_adduction_l	/forceset/tau_hip_rotation_l	/forceset/tau_knee_flexion_l	/forceset/tau_ankle_angle_l	/forceset/tau_subtalar_angle_l	/forceset/tau_lumbar_extension	lambda_cid13_p0	lambda_cid13_p1	lambda_cid13_p2	lambda_cid13_p3	lambda_cid13_p4	lambda_cid13_p5	lambda_cid14_p0	/jointset/ground_pelvis/pelvis_tilt/accel	/jointset/ground_pelvis/pelvis_tx/accel	/jointset/ground_pelvis/pelvis_ty/accel	/jointset/hip_l/hip_flexion_l/accel	/jointset/hip_l/hip_adduction_l/accel	/jointset/hip_l/hip_rotation_l/accel	/jointset/back/lumbar_extension/accel	/jointset/patellofemoral_l/patellar_flexion_l/accel	/jointset/knee_l/knee_flexion_l/accel	/jointset/knee_l/knee_adduction_l/accel	/jointset/knee_l/knee_rotation_l/accel	/jointset/ankle_l/ankle_angle_l/accel	/jointset/subtalar_l/subtalar_angle_l/accel	gamma_cid13_p0	gamma_cid13_p1	gamma_cid13_p2	gamma_cid13_p3	gamma_cid13_p4	gamma_cid13_p5	gamma_cid14_p0
1.5	-0.4901259614521656	-0.0749534510065803	0.7472885700452092	1.351116718859122	-0.3091496407955653	-0.02653626751077704	-0.3522833061212242	0.7462003481913975	0.7462003481914027	-0.1709335876751885	0.1742563278353038	0.05536187057895088	-0.04545622233946483	0.8377012299058857	0.2548337654520877	0.5471572908982655	-2.555716558305029	0.01692559713061374	-0.6639251372899108	0.5577440586805883	-1.893583289880427	-1.893583289880415	0.01036731627843471	-0.0002560114908200079	-0.2804278849684476	-0.0161725632251211	-0.2750109828550585	0.0230459878287992	-0.01964019924891505	-0.18792997254191	0.1143399353533421	0.04540797800187558	0.2403919647634586	-1.785827835169159	-21.86810149077304	5.893982880056355	-4.385146453240774	-609.1206117174928	-55.93672875103878	-24.93812722652388	0.7468226780146112	0.7353471722809756	-0.3210722035704896	-1.711213192772453	0.6486556931262141	-0.3290409768980267	1.902362613768614	-1.227091728743563	-1.227091728743562	0.0008737632567246622	-0.001301276103924078	-0.227187436351123	0.6278320966997342	3.316160755197662e-07	8.630843811917488e-07	-1.655333921161976e-06	-1.02232272557566e-07	4.156918808833255e-07	-9.605530529818351e-08	3.62263727252649e-07
1.51	-0.4817119992679423	-0.07236851702283359	0.7527430552420399	1.325476150475121	-0.3089493303962383	-0.033190327589301	-0.3466122690326844	0.7272052140631141	0.7272052140631221	-0.170833294870413	0.1742543290407768	0.05254627792155767	-0.04558809716139439	0.8449732563058601	0.262126781527417	0.54362856682036	-2.572044961726734	0.02315131027103017	-0.6668067393792602	0.5763959412332647	-1.905173540896422	-1.905173540896451	0.009691701806528737	-0.0001437605704617801	-0.2826275440094616	-0.01018568723485161	-0.266066722993971	0.02243663659131726	-0.01958224442940704	-0.1868122919205498	0.1150610160752082	0.04491094571641548	0.2335951205521127	-1.283086856968027	-21.84515679471933	6.010134035857043	-4.433556842071518	-604.053690240027	-56.30193141174789	-26.06722899188669	0.6997459011700982	0.7223173014156055	-0.3853540054529397	-1.540773740526413	0.611876711310843	-0.2553377987721464	1.836488406834115	-1.084571464501592	-1.084571464507698	-0.1016247293264226	0.01788236435107983	-0.2068838321557586	0.5866784502077604	3.577592198242161e-07	9.336164186557964e-07	-1.750743665001749e-06	-1.141513959160293e-07	4.573154254441496e-07	-5.946697036909534e-08	3.835674568853656e-07
1.52	-0.473228846163683	-0.06971144518308235	0.7581589368989811	1.299682874092175	-0.3086862933481451	-0.03987072728347685	-0.3407567356524536	0.7081022614893789	0.7081022614893815	-0.1707397273457406	0.1742535315731032	0.04971058293491905	-0.0456595906034178	0.8515394139130863	0.2692613366529958	0.5394365829203561	-2.586258158094715	0.02947092688390206	-0.669193060421358	0.5946433170186221	-1.915146978971377	-1.915146978971447	0.009022260258138431	-1.574612028788281e-05	-0.2844483508176426	-0.004096287243893132	-0.257122463132858	0.02182728535385169	-0.01952428960993769	-0.1856946112991819	0.1157820967970781	0.0444139134309737	0.2267982763407896	-0.7824567357927197	-21.82579966877866	6.131378343773365	-4.506665159163007	-599.0451859601515	-56.74956300093609	-27.19294896450608	0.6056489194649401	0.7036549823308633	-0.4537241679901229	-1.288171782027747	0.6674363876173107	-0.2299847674476778	1.821461260304823	-0.9037291405354364	-0.9037291405354342	0.002108347959855462	0.001851429859214462	-0.1514169897845049	0.6483368968375336	3.788284620488987e-07	1.015678741422685e-06	-1.843947078106335e-06	-1.152015535786912e-07	4.892933120303838e-07	-1.683107927116499e-08	4.058308694360728e-07
1.53	-0.4646834913034065	-0.06698385754552692	0.7635296403136489	1.27375789689945	-0.3083599058142871	-0.04657226141629632	-0.3347210447062403	0.6889076565913915	0.6889076565913924	-0.1706534400844127	0.1742540246404107	0.04685856664819396	-0.04566999998408769	0.8574058660015904	0.2762238084459541	0.5345981717205801	-2.598377271474397	0.03580786340127183	-0.6710042901221948	0.6124099860340274	-1.923502891371589	-1.923502891371618	0.00820761964085827	9.451773788031283e-05	-0.2858905465852432	0.002017379914035971	-0.2479961888545004	0.02089943373487527	-0.01946660724937931	-0.1849038914685043	0.1168842180627193	0.04369675912939324	0.2198210806290538	-0.1718260149771967	-21.73187280421145	6.242753516468981	-4.614902594907033	-594.1235769211646	-57.10993748092834	-28.31331328379823	0.5583414485342389	0.6876660993564964	-0.5146843087438798	-1.119716324735303	0.6171365028697754	-0.1398637009653704	1.741536793589687	-0.7609442173403709	-0.7609442173342036	-0.1272861861553465	0.01307485950081277	-0.1309596763257317	0.5933743950250504	3.945066833138288e-07	1.109991992323843e-06	-1.934806264804785e-06	-1.047034351895643e-07	5.110226870186167e-07	3.223034025616014e-08	4.291139450871453e-07
